<svg width="31" height="32" viewBox="0 0 31 32" fill="none" xmlns="http://www.w3.org/2000/svg">
<path d="M12.6408 0.19078C14.1275 -0.0263522 15.5819 -0.050006 17.0429 0.0786219C18.6064 0.21628 20.0997 0.626226 21.5482 1.20862C24.2628 2.29997 26.5565 3.96474 28.3674 6.27626C29.0696 7.17261 29.638 8.15872 30.2584 9.11003C30.416 9.35188 30.2782 9.4789 30.1295 9.62703C29.1427 10.6106 28.1548 11.5931 27.1725 12.5812C26.591 13.1662 26.0095 13.7518 25.4481 14.3558C25.2382 14.5814 25.1068 14.5862 24.8987 14.3575C24.5168 13.9376 24.1091 13.5408 23.7052 13.1416C23.5069 12.9457 23.4621 12.7906 23.703 12.5745C24.58 11.7876 25.3291 10.8745 26.1602 10.0419C26.4066 9.79514 26.4204 9.56109 26.2695 9.24412C25.8761 8.41697 25.3269 7.70082 24.771 6.98425C24.5464 6.69483 24.3403 6.52644 24.0333 6.93123C23.6377 6.57162 23.294 6.19413 22.9016 5.86917C21.2981 4.54164 19.4158 3.88157 17.3989 3.55582C15.0683 3.17942 12.7708 3.35085 10.5947 4.2832C6.98952 5.82775 4.6461 8.50736 3.85102 12.3811C3.46988 14.238 3.57038 16.1051 4.66927 17.7792C5.45957 18.9832 6.52032 19.7257 8.00356 19.7624C8.63862 19.7782 9.27344 19.8136 9.90849 19.8195C10.4295 19.8242 10.4898 19.7539 10.4906 19.2364C10.494 17.0708 10.5726 14.9016 10.4743 12.7405C10.3785 10.6356 11.9989 8.27258 14.7419 8.22807C15.8288 8.21045 16.9383 8.15693 17.891 8.77057C19.2139 9.62289 20.1055 10.7693 20.095 12.452C20.0809 14.7122 20.0995 16.9727 20.0836 19.2329C20.0808 19.6384 20.2011 19.768 20.6144 19.7666C23.8737 19.7555 27.133 19.7663 30.3922 19.7709C30.5003 19.771 30.6087 19.772 30.7165 19.7797C30.9606 19.7973 31.0508 19.9146 30.9725 20.1597C30.5103 21.6058 29.9695 23.0195 29.1929 24.3292C27.5713 27.0638 25.2871 29.0752 22.4251 30.4252C20.4365 31.3633 18.3347 31.8859 16.1327 31.9822C13.4557 32.0991 10.8804 31.6434 8.43852 30.538C6.52097 29.6699 4.8172 28.491 3.4617 26.8518C3.21195 26.5497 2.70461 25.9523 2.70461 25.9523L5.30502 23.6486C5.91395 24.4808 6.58825 25.2532 7.39755 25.9C8.99551 27.1771 10.8126 27.9454 12.8198 28.316C15.1029 28.7375 17.3484 28.615 19.5349 27.856C22.0041 26.9989 23.9499 25.4383 25.3853 23.2481C25.4505 23.1484 25.5299 23.0486 25.5049 22.9093C25.3491 22.763 25.1512 22.8027 24.9679 22.8047C23.481 22.8213 21.9941 22.8538 20.5072 22.8587C19.9951 22.8604 19.4743 22.845 18.9722 22.755C17.5557 22.5012 16.7592 21.5146 16.7465 19.9917C16.7271 17.6638 16.7392 15.3357 16.7348 13.0076C16.7344 12.7783 16.734 12.5455 16.6971 12.3203C16.5812 11.6116 16.021 11.1563 15.3358 11.1939C14.5473 11.237 13.9609 11.7666 13.9445 12.5052C13.9219 13.5198 13.9366 14.5352 13.9351 15.5503C13.933 16.9038 13.9531 18.2578 13.9207 19.6107C13.8968 20.6079 13.6689 21.5532 12.8239 22.2079C12.1748 22.7109 11.3923 22.8394 10.6033 22.8556C9.27952 22.8827 7.94941 22.9553 6.63277 22.7839C4.53885 22.5111 2.85424 21.4958 1.65702 19.7587C0.101548 17.5017 -0.243575 14.9691 0.148433 12.3095C0.767155 8.11153 3.04915 4.97678 6.47156 2.62039C8.3198 1.34784 10.3851 0.559192 12.6408 0.19078Z" fill="url(#paint0_linear_204_36)"/>
<defs>
<linearGradient id="paint0_linear_204_36" x1="15.5" y1="-1.37477e-08" x2="15.5" y2="32" gradientUnits="userSpaceOnUse">
<stop offset="0.123476" stop-color="#FF4F43"/>
<stop offset="0.627303" stop-color="#FF291A"/>
</linearGradient>
</defs>
</svg>
